<svg width="16" height="12" viewBox="0 0 16 12" fill="none" xmlns="http://www.w3.org/2000/svg">
<g id="IMAGE" clip-path="url(#clip0_1_1254)">
<path id="Vector" d="M13.6024 0.560059H2.39874C1.99354 0.560059 1.60495 0.715272 1.31843 0.991556C1.03192 1.26783 0.870956 1.64256 0.870956 2.03328V2.32988L8.00059 6.37434L15.1302 2.32792V2.03328C15.1302 1.64256 14.9693 1.26783 14.6828 0.991556C14.3962 0.715272 14.0077 0.560059 13.6024 0.560059Z" fill="white"/>
<path id="Vector_2" d="M15.1302 3.46826L8.25929 7.36737C8.19433 7.40414 8.12172 7.42656 8.04669 7.43302C7.97166 7.43947 7.89609 7.4298 7.8254 7.40469L7.74188 7.36737L0.870956 3.47022V9.89052C0.870956 10.2812 1.03192 10.656 1.31843 10.9322C1.60495 11.2085 1.99354 11.3637 2.39874 11.3637H13.6024C14.0077 11.3637 14.3962 11.2085 14.6828 10.9322C14.9693 10.656 15.1302 10.2812 15.1302 9.89052V3.46826Z" fill="white"/>
</g>
<defs>
<clipPath id="clip0_1_1254">
<rect width="16" height="12" fill="white"/>
</clipPath>
</defs>
</svg>
