<svg width="16" height="13" viewBox="0 0 16 13" fill="none" xmlns="http://www.w3.org/2000/svg">
<g id="IMAGE" clip-path="url(#clip0_1_1250)">
<path id="Vector" d="M15.3131 1.65809C14.7497 1.90196 14.1442 2.06619 13.5087 2.14022C14.1576 1.76137 14.6559 1.16104 14.89 0.445634C14.2833 0.796495 13.6108 1.05156 12.8949 1.18904C12.3226 0.593693 11.5052 0.22168 10.6018 0.22168C8.57342 0.22168 7.08294 2.06681 7.54107 3.98224C4.93082 3.85471 2.61599 2.63541 1.06618 0.782187C0.243095 2.15888 0.639322 3.95985 2.03792 4.87183C1.52365 4.85566 1.03874 4.71818 0.615714 4.48863C0.58126 5.90762 1.62446 7.23517 3.13536 7.53067C2.69319 7.64762 2.20892 7.675 1.71635 7.58292C2.11576 8.79972 3.27572 9.68502 4.65135 9.70989C3.3306 10.7196 1.66658 11.1706 0 10.979C1.3903 11.848 3.0422 12.355 4.81596 12.355C10.649 12.355 13.9444 7.55182 13.7454 3.24382C14.3592 2.81146 14.892 2.2721 15.3131 1.65809Z" fill="white"/>
</g>
<defs>
<clipPath id="clip0_1_1250">
<rect width="16" height="13" fill="white"/>
</clipPath>
</defs>
</svg>
