<svg width="43" height="40" viewBox="0 0 43 40" fill="none" xmlns="http://www.w3.org/2000/svg">
<g id="Group 6">
<path id="Fill 4" fill-rule="evenodd" clip-rule="evenodd" d="M41.5404 20.5946H23.3353C22.8307 20.5946 22.4225 20.9943 22.4225 21.4869V24.7019C22.4225 25.1951 22.8307 25.5949 23.3353 25.5949H32.7753C32.539 26.7778 32.1752 27.8782 31.6907 28.8755C31.0801 30.1303 30.2533 31.2191 29.2338 32.1148C28.2144 33.0106 26.9634 33.7172 25.5115 34.2152C24.0443 34.7193 22.3497 34.9754 20.475 34.9754C18.0286 34.9754 15.8586 34.5554 14.0276 33.7281C12.1896 32.8981 10.6399 31.7917 9.41667 30.4406C8.18719 29.0815 7.24464 27.5069 6.61327 25.7595C5.97705 23.9992 5.65478 22.1448 5.65478 20.2463C5.65478 18.2842 5.99368 16.3722 6.66248 14.5624C7.32919 12.7609 8.29115 11.1585 9.52063 9.79931C10.7459 8.44558 12.2651 7.34187 14.0359 6.52136C15.7962 5.70425 17.8144 5.29027 20.0329 5.29027C21.428 5.29027 22.7566 5.46236 23.984 5.80113C25.2093 6.13923 26.3036 6.59928 27.2358 7.16774C28.1499 7.72536 28.9296 8.40425 29.5506 9.18546C30.1729 9.9687 30.6283 10.7994 30.9048 11.6544C31.0247 12.0257 31.3768 12.2784 31.7746 12.2784H35.4076C35.6827 12.2784 35.9433 12.1558 36.1166 11.9464C36.2912 11.7371 36.357 11.462 36.2995 11.1984C35.9648 9.67193 35.3209 8.22403 34.3874 6.89198C33.4573 5.56942 32.2653 4.40404 30.8466 3.4277C29.4362 2.45679 27.7895 1.69116 25.9515 1.15048C24.1226 0.61387 22.1141 0.34082 19.983 0.34082C16.9328 0.34082 14.1606 0.901825 11.7391 2.00757C9.33073 3.1079 7.23771 4.60053 5.52032 6.44209C3.80155 8.28365 2.47574 10.4315 1.57616 12.8252C0.682117 15.2088 0.229553 17.7225 0.229553 20.2972C0.229553 22.8203 0.664791 25.2818 1.52418 27.6126C2.38772 29.9576 3.68789 32.0722 5.39072 33.8988C7.09494 35.7275 9.21638 37.2127 11.6975 38.313C14.1828 39.416 17.0922 39.975 20.3454 39.975C22.9187 39.975 25.2772 39.6078 27.3557 38.8862C29.4459 38.1585 31.2887 37.1124 32.8349 35.7763C34.3805 34.4402 35.646 32.8202 36.5989 30.963C37.4341 29.3349 38.0183 27.532 38.3426 25.5949H41.5404C42.0449 25.5949 42.4531 25.1951 42.4531 24.7019V21.4869C42.4531 20.9943 42.0449 20.5946 41.5404 20.5946Z" fill="black"/>
</g>
</svg>
