<svg width="28" height="39" viewBox="0 0 28 39" fill="none" xmlns="http://www.w3.org/2000/svg">
<g id="Group 15">
<path id="Fill 13" fill-rule="evenodd" clip-rule="evenodd" d="M9.96415 19.6588L27.2599 1.98301C27.5125 1.72471 27.5865 1.33863 27.4473 1.00379C27.3081 0.66896 26.9822 0.45166 26.6223 0.45166H22.106C21.8677 0.45166 21.6388 0.546643 21.4711 0.716793L5.99994 16.3795V1.35161C5.99994 0.854143 5.59998 0.45166 5.10632 0.45166H1.57941C1.08643 0.45166 0.68512 0.854143 0.68512 1.35161V37.9667C0.68512 38.4641 1.08643 38.8666 1.57941 38.8666H5.10632C5.59998 38.8666 5.99994 38.4641 5.99994 37.9667V22.9388L21.4711 38.6015C21.6388 38.7716 21.8677 38.8666 22.106 38.8666H26.6223C26.9822 38.8666 27.3081 38.6486 27.4473 38.3145C27.5865 37.9803 27.5125 37.5936 27.2599 37.3346L9.96415 19.6588Z" fill="black"/>
</g>
</svg>
