<svg width="38" height="38" viewBox="0 0 38 38" fill="none" xmlns="http://www.w3.org/2000/svg">
<path id="Fill 7" fill-rule="evenodd" clip-rule="evenodd" d="M37.036 0.0500488H33.5199C33.1519 0.0500488 32.8201 0.261875 32.6751 0.589059C32.6751 0.589059 20.1654 27.5746 19.9075 28.2182C19.798 28.4901 19.6042 28.6493 19.393 28.6412C19.1825 28.6493 18.988 28.4901 18.8793 28.2182C18.6207 27.5746 6.11165 0.589059 6.11165 0.589059C5.96596 0.261875 5.63485 0.0500488 5.2668 0.0500488H1.75005C1.24398 0.0500488 0.832703 0.448066 0.832703 0.938505V37.0859C0.832703 37.577 1.24398 37.975 1.75005 37.975H5.37135C5.87813 37.975 6.2894 37.577 6.2894 37.0859V15.5599C6.2894 15.1012 6.84846 15.11 6.96696 15.4007C7.27019 16.1468 17.0739 37.4286 17.0739 37.4286C17.2154 37.7592 17.5506 37.975 17.9208 37.975H20.8659C21.2361 37.975 21.5707 37.7592 21.7122 37.4286C21.7122 37.4286 31.5159 16.1468 31.8198 15.4007C31.9383 15.11 32.4966 15.1012 32.4966 15.5599V37.0859C32.4966 37.577 32.9086 37.975 33.4154 37.975H37.036C37.5428 37.975 37.9533 37.577 37.9533 37.0859V0.938505C37.9533 0.448066 37.5428 0.0500488 37.036 0.0500488Z" fill="black"/>
</svg>
