<svg width="29" height="38" viewBox="0 0 29 38" fill="none" xmlns="http://www.w3.org/2000/svg">
<path id="Fill 11" fill-rule="evenodd" clip-rule="evenodd" d="M27.8213 0.0500488H24.2586C23.76 0.0500488 23.3554 0.448066 23.3554 0.938505V27.1867C23.3554 27.3986 23.1298 27.5227 22.9535 27.2218C22.7773 26.921 6.50543 0.478424 6.50543 0.478424C6.34084 0.212629 6.0487 0.0500488 5.73254 0.0500488H1.7865C1.28793 0.0500488 0.883301 0.448066 0.883301 0.938505V37.0859C0.883301 37.577 1.28793 37.975 1.7865 37.975H5.34713C5.84639 37.975 6.25033 37.577 6.25033 37.0859V10.9254C6.25033 10.5368 6.51847 10.5645 6.62065 10.7311C6.72215 10.8977 23.1009 37.546 23.1009 37.546C23.2648 37.8125 23.5577 37.975 23.8745 37.975H27.8213C28.3198 37.975 28.7238 37.577 28.7238 37.0859V0.938505C28.7238 0.448066 28.3198 0.0500488 27.8213 0.0500488Z" fill="black"/>
</svg>
