<svg width="40" height="40" viewBox="0 0 40 40" fill="none" xmlns="http://www.w3.org/2000/svg">
<path id="Fill 9" fill-rule="evenodd" clip-rule="evenodd" d="M33.1026 25.6259C32.451 27.4082 31.5033 29.0079 30.2872 30.3815C29.0807 31.7475 27.5731 32.8649 25.8115 33.7027C24.0594 34.535 22.0682 34.9573 19.8928 34.9573C17.6842 34.9573 15.6902 34.5357 13.966 33.7047C12.2275 32.8669 10.7376 31.7496 9.53646 30.3835C8.32785 29.0093 7.38556 27.4088 6.73404 25.6259C6.0798 23.8369 5.74692 21.9439 5.74692 19.9998C5.74692 18.0542 6.0798 16.1517 6.73404 14.3456C7.38556 12.5463 8.32785 10.9383 9.53646 9.56541C10.7376 8.19867 12.2261 7.08615 13.9626 6.25859C15.6875 5.43445 17.6842 5.01691 19.8928 5.01691C22.0852 5.01691 24.0818 5.43513 25.8258 6.25927C27.5779 7.08888 29.08 8.20141 30.2872 9.56746C31.5033 10.9397 32.4497 12.5469 33.1019 14.3456C33.7575 16.1524 34.0897 18.0549 34.0897 19.9998C34.0897 21.9433 33.7575 23.8362 33.1026 25.6259ZM34.2487 6.13695C32.5679 4.30347 30.4972 2.81168 28.0915 1.70257C25.675 0.589365 22.9174 0.0249023 19.8928 0.0249023C16.8723 0.0249023 14.1134 0.589365 11.6921 1.70257C9.28034 2.81168 7.20281 4.30279 5.51729 6.13558C3.83108 7.96906 2.52941 10.1189 1.64826 12.5258C0.771866 14.9217 0.326874 17.4371 0.326874 19.9998C0.326874 22.5802 0.771866 25.0991 1.64826 27.4867C2.53008 29.8847 3.83109 32.0339 5.51593 33.8749C7.20146 35.7172 9.27966 37.2138 11.6921 38.3229C14.1134 39.4354 16.8723 39.9999 19.8928 39.9999C22.9174 39.9999 25.675 39.4354 28.0915 38.3222C30.4972 37.2138 32.5699 35.7172 34.25 33.8742C35.9267 32.0359 37.2359 29.8847 38.1442 27.482C39.0498 25.084 39.5097 22.5665 39.5097 19.9998C39.5097 17.4337 39.0498 14.9169 38.1442 12.5176C37.2359 10.1135 35.9254 7.96769 34.2487 6.13695Z" fill="black"/>
</svg>
