<svg width="29" height="40" viewBox="0 0 29 40" fill="none" xmlns="http://www.w3.org/2000/svg">
<g id="Group 3">
<path id="Fill 1" fill-rule="evenodd" clip-rule="evenodd" d="M27.7888 0.437256H24.219C23.7193 0.437256 23.313 0.843209 23.313 1.34496V25.1439L23.2965 25.2156C23.2965 30.1628 19.282 34.1886 14.347 34.1886C9.41202 34.1886 5.39749 30.1628 5.39749 25.2156L5.38099 25.1439V1.34496C5.38099 0.843209 4.97473 0.437256 4.47497 0.437256H0.905209C0.404768 0.437256 -0.00012207 0.843209 -0.00012207 1.34496V25.2156C-0.00012207 33.0438 6.27051 39.4267 14.039 39.5921C14.1415 39.5948 14.2439 39.6003 14.347 39.6003C14.4501 39.6003 14.5525 39.5948 14.6556 39.5921C22.4235 39.4267 28.6941 33.0438 28.6941 25.2156V1.34496C28.6941 0.843209 28.2892 0.437256 27.7888 0.437256Z" fill="black"/>
</g>
</svg>
